<?xml version="1.0" standalone="no"?>
<!DOCTYPE svg PUBLIC "-//W3C//DTD SVG 20010904//EN"
 "http://www.w3.org/TR/2001/REC-SVG-20010904/DTD/svg10.dtd">
<svg version="1.0" xmlns="http://www.w3.org/2000/svg"
 width="50px" height="50px" viewBox="0 0 262.000000 176.000000"
 preserveAspectRatio="xMidYMid meet">

<g transform="translate(0.000000,176.000000) scale(0.100000,-0.100000)"
fill="#FF79C6" stroke="none">
<path d="M475 1703 c-60 -8 -155 -45 -212 -82 -202 -130 -269 -393 -161 -621
33 -68 141 -171 218 -207 91 -43 150 -53 315 -53 l145 0 0 -350 0 -350 90 0
90 0 0 350 0 350 165 0 165 0 0 85 0 85 -165 0 -165 0 0 58 c0 86 18 163 55
229 116 210 419 198 533 -22 30 -58 42 -192 23 -262 -17 -63 -70 -134 -125
-168 -47 -29 -56 -30 -185 -35 l-136 -5 0 -85 0 -85 620 0 620 0 57 23 c67 27
128 90 146 150 18 58 14 151 -7 197 -23 51 -89 111 -155 141 -28 12 -114 42
-191 65 -205 61 -235 79 -235 139 0 25 7 43 21 56 19 18 42 19 295 22 l274 3
0 85 0 85 -289 -3 -288 -3 -69 -35 c-89 -46 -126 -101 -132 -196 -6 -84 16
-140 73 -193 58 -54 95 -71 270 -126 220 -70 255 -91 255 -156 0 -29 -6 -42
-26 -58 -26 -20 -38 -21 -361 -21 l-334 0 26 37 c84 123 87 343 9 509 -93 197
-338 306 -559 249 -88 -23 -140 -51 -205 -111 -103 -96 -160 -238 -160 -403
l0 -83 -147 4 c-177 6 -221 19 -298 90 -73 66 -99 133 -93 238 8 124 68 213
177 264 36 16 74 22 166 26 l120 5 0 85 0 85 -100 1 c-55 1 -113 -1 -130 -3z"/>
</g>
</svg>
