<?xml version="1.0" standalone="no"?>
<!DOCTYPE svg PUBLIC "-//W3C//DTD SVG 20010904//EN"
 "http://www.w3.org/TR/2001/REC-SVG-20010904/DTD/svg10.dtd">
<svg version="1.0" xmlns="http://www.w3.org/2000/svg"
 width="60px" height="60px" viewBox="0 0 898.000000 278.000000"
 preserveAspectRatio="xMidYMid meet">

<g transform="translate(0.000000,278.000000) scale(0.100000,-0.100000)"
fill="#FF79C6" stroke="none">
<path d="M1820 1480 l0 -1240 825 0 825 0 0 200 0 200 -605 0 -605 0 0 330 0
330 540 0 540 0 0 200 0 200 -540 0 -540 0 0 315 0 315 605 0 605 0 0 195 0
195 -825 0 -825 0 0 -1240z"/>
<path d="M3947 2474 c-4 -4 -7 -112 -7 -241 l0 -233 -130 0 -130 0 0 -175 0
-175 129 0 130 0 4 -467 c3 -410 6 -475 21 -528 45 -154 140 -268 276 -334
127 -62 203 -75 425 -76 l190 0 0 175 0 175 -170 5 c-148 5 -175 8 -210 27
-46 24 -65 43 -91 93 -18 32 -19 68 -22 482 l-3 448 243 2 243 3 3 173 2 172
-245 0 -245 0 -2 238 -3 237 -201 3 c-110 1 -203 -1 -207 -4z"/>
<path d="M5708 2020 c-257 -36 -461 -171 -564 -374 -64 -125 -76 -190 -81
-471 -6 -290 4 -419 43 -526 69 -190 210 -321 421 -389 214 -69 493 -63 701
16 229 86 382 282 382 491 l0 53 -192 -2 -193 -3 -6 -46 c-9 -62 -31 -100 -80
-143 -68 -58 -122 -71 -289 -71 -139 0 -148 1 -208 29 -75 35 -143 105 -167
174 -9 26 -19 89 -22 140 l-6 92 588 0 588 0 -6 223 c-4 182 -9 236 -26 300
-32 122 -83 210 -176 303 -93 95 -194 150 -335 184 -99 23 -276 33 -372 20z
m338 -374 c120 -60 173 -147 182 -298 l5 -88 -393 0 -393 0 6 78 c11 148 72
251 179 305 74 38 126 47 242 42 89 -3 106 -7 172 -39z"/>
<path d="M7585 2020 c-312 -41 -525 -213 -602 -485 -13 -49 -17 -118 -21 -373
-4 -328 2 -405 39 -516 43 -126 142 -250 258 -320 129 -79 334 -123 516 -113
430 25 677 242 702 614 l6 93 -196 0 c-109 0 -197 -3 -197 -7 0 -5 -5 -39 -10
-76 -18 -120 -71 -196 -170 -240 -64 -29 -256 -36 -332 -13 -86 27 -141 74
-180 153 l-33 68 0 315 0 315 26 55 c33 70 79 116 149 149 50 24 66 26 185 26
119 0 135 -2 186 -26 30 -14 72 -43 92 -64 37 -38 77 -126 77 -169 0 -13 3
-38 6 -55 l7 -31 195 0 195 0 -6 88 c-13 180 -64 299 -177 413 -60 61 -92 84
-160 116 -167 79 -361 108 -555 83z"/>
</g>
</svg>
