<?xml version="1.0" standalone="no"?>
<!DOCTYPE svg PUBLIC "-//W3C//DTD SVG 20010904//EN"
 "http://www.w3.org/TR/2001/REC-SVG-20010904/DTD/svg10.dtd">
<svg version="1.0" xmlns="http://www.w3.org/2000/svg"
 width="60px" height="60px" viewBox="0 0 898.000000 264.000000"
 preserveAspectRatio="xMidYMid meet">

<g transform="translate(0.000000,264.000000) scale(0.100000,-0.100000)"
fill="#FF79C6" stroke="none">
<path d="M540 1405 l0 -1175 215 0 215 0 0 485 0 485 500 0 500 0 0 190 0 190
-500 0 -500 0 0 315 0 315 550 0 550 0 0 185 0 185 -765 0 -765 0 0 -1175z"/>
<path d="M4190 2125 l0 -224 -127 -3 -128 -3 -3 -162 -2 -163 130 0 130 0 0
-432 c0 -468 3 -503 56 -614 14 -30 48 -78 75 -108 124 -136 281 -186 578
-186 l151 0 0 170 0 170 -142 0 c-79 0 -160 5 -180 10 -49 14 -93 52 -121 104
-22 40 -22 50 -25 464 l-3 422 230 0 231 0 0 165 0 165 -230 0 -230 0 0 225 0
225 -195 0 -195 0 0 -225z"/>
<path d="M2848 1920 c-178 -28 -317 -90 -412 -183 -95 -93 -144 -204 -160
-359 l-6 -58 189 0 189 0 7 48 c22 152 139 233 340 235 127 1 195 -18 257 -72
64 -57 90 -122 96 -243 l5 -97 -339 -3 c-322 -4 -342 -5 -409 -27 -105 -35
-163 -67 -225 -127 -97 -92 -140 -200 -140 -349 0 -143 41 -247 132 -338 102
-103 229 -144 416 -135 137 7 251 44 426 138 l126 68 0 -94 0 -94 196 0 195 0
-4 593 c-3 518 -6 600 -21 656 -58 220 -208 362 -446 421 -97 24 -318 35 -412
20z m492 -1097 l0 -98 -143 -76 c-186 -100 -242 -120 -347 -126 -75 -4 -90 -2
-130 19 -78 40 -111 119 -90 214 14 61 42 100 92 125 63 32 107 37 371 38
l247 1 0 -97z"/>
<path d="M5840 1913 c-290 -49 -492 -222 -567 -483 -16 -57 -18 -105 -18 -390
l0 -325 28 -82 c70 -208 230 -345 472 -405 72 -17 120 -22 235 -22 262 -1 450
63 586 198 87 87 144 219 144 331 l0 35 -184 0 -183 0 -7 -41 c-13 -84 -67
-146 -155 -181 -48 -19 -76 -22 -191 -22 -128 -1 -138 1 -195 27 -74 34 -119
77 -152 142 -21 40 -27 69 -31 148 l-5 97 553 0 552 0 -4 228 c-4 214 -6 232
-32 309 -75 229 -256 379 -514 429 -68 13 -272 17 -332 7z m332 -345 c113 -52
172 -147 185 -294 l6 -74 -373 0 -373 0 5 78 c11 156 82 255 221 304 81 29
252 22 329 -14z"/>
<path d="M7610 1913 c-264 -44 -452 -193 -527 -416 l-28 -82 0 -350 0 -350 29
-88 c34 -105 103 -208 179 -268 152 -121 397 -179 633 -149 189 23 317 80 427
188 99 97 167 269 167 423 l0 49 -185 0 c-210 0 -187 10 -199 -94 -19 -158
-149 -243 -360 -234 -152 6 -238 56 -290 167 -20 44 -21 61 -21 351 0 300 0
306 24 358 29 65 95 125 164 149 61 21 218 23 284 5 106 -31 187 -123 199
-228 12 -104 -11 -94 201 -94 l186 0 -6 83 c-23 315 -201 509 -525 573 -68 13
-290 18 -352 7z"/>
</g>
</svg>
