<?xml version="1.0" standalone="no"?>
<!DOCTYPE svg PUBLIC "-//W3C//DTD SVG 20010904//EN"
 "http://www.w3.org/TR/2001/REC-SVG-20010904/DTD/svg10.dtd">
<svg version="1.0" xmlns="http://www.w3.org/2000/svg"
 width="130px" height="130px" viewBox="0 0 1998.000000 765.000000"
 preserveAspectRatio="xMidYMid meet">

<g transform="translate(0.000000,765.000000) scale(0.100000,-0.100000)"
fill="#FFFFFF" stroke="none">
<path d="M4290 5385 l0 -1015 165 0 165 0 0 420 0 420 670 0 670 0 2 -417 3
-418 168 -3 167 -2 -2 1012 -3 1013 -165 0 -165 0 -3 -422 -2 -423 -670 0
-670 0 0 425 0 425 -165 0 -165 0 0 -1015z"/>
<path d="M1910 5380 l0 -1010 165 0 165 0 0 1010 0 1010 -165 0 -165 0 0
-1010z"/>
<path d="M3099 5989 c-216 -220 -399 -409 -407 -420 -12 -17 -26 -19 -143 -19
l-129 0 0 -170 0 -170 123 0 123 0 419 -420 419 -420 253 0 c139 0 252 3 252
8 -1 4 -67 70 -148 147 -536 515 -881 850 -881 856 0 4 232 231 515 504 283
273 515 499 515 501 0 2 -117 4 -259 4 l-259 0 -393 -401z"/>
<path d="M7345 6346 c-183 -70 -291 -152 -399 -301 -94 -129 -138 -203 -176
-292 l-30 -72 0 -655 0 -656 165 0 165 0 0 250 0 250 658 -2 657 -3 3 -247 2
-248 165 0 165 0 0 961 c0 947 0 962 -20 994 -42 69 -7 65 -657 64 l-588 0
-110 -43z m1043 -718 l2 -418 -660 0 -660 0 0 173 c0 191 5 211 78 352 49 93
155 198 250 248 130 69 105 66 567 64 l420 -2 3 -417z"/>
<path d="M8970 6384 c0 -7 939 -1864 987 -1952 l34 -63 117 3 116 3 503 1000
c276 550 503 1003 503 1008 0 4 -90 7 -201 7 l-200 0 -357 -721 -357 -722
-375 722 -375 721 -197 0 c-109 0 -198 -3 -198 -6z"/>
<path d="M11641 6310 l-101 -81 2 -847 3 -846 145 -83 145 -83 803 0 802 0 0
590 0 590 -640 0 -640 0 0 -170 0 -170 470 0 470 0 0 -250 0 -250 -635 0 -635
0 0 670 0 670 805 0 805 0 0 170 0 170 -849 0 -848 0 -102 -80z"/>
<path d="M15037 5107 c-1131 -1133 -1168 -1171 -1165 -1204 3 -31 123 -154
1162 -1194 l1160 -1159 40 0 c40 0 46 5 261 221 121 121 228 228 238 237 10 9
158 158 330 330 172 173 317 319 324 325 72 71 365 362 501 499 94 95 294 294
442 443 258 258 270 271 270 307 0 37 -30 68 -1164 1203 -1090 1090 -1167
1165 -1198 1164 -30 -1 -135 -103 -1201 -1172z m2045 73 l839 -839 -147 -150
-148 -149 -674 674 c-423 423 -681 674 -693 674 -13 0 -288 -269 -744 -726
-625 -627 -725 -731 -725 -756 0 -25 99 -127 720 -748 583 -584 724 -720 745
-720 21 0 154 128 701 675 l674 674 145 -144 c80 -79 145 -147 145 -150 0 -4
-379 -387 -842 -851 l-843 -843 -1053 1053 -1053 1054 1053 1055 c579 581
1055 1056 1057 1056 2 1 381 -377 843 -839z m-193 -645 l624 -625 -629 -629
-629 -629 -628 628 -629 629 625 625 c344 344 629 626 634 626 4 0 289 -282
632 -625z m1306 -468 l153 -153 -152 -151 -151 -152 -154 154 -153 154 148
150 c82 82 151 150 153 150 2 1 72 -68 156 -152z"/>
<path d="M2303 4020 c-167 -67 -255 -146 -363 -329 l-30 -52 0 -881 0 -880 48
-81 c86 -146 195 -243 335 -298 l72 -28 963 -1 962 0 0 215 0 215 -970 0 -970
0 0 855 0 855 968 2 967 3 0 215 0 215 -955 2 -955 1 -72 -28z"/>
<path d="M5345 4031 c-101 -37 -212 -102 -310 -181 -148 -120 -201 -174 -259
-264 -159 -247 -155 -229 -156 -836 l0 -475 36 -107 c25 -75 54 -137 100 -210
80 -126 88 -135 244 -265 97 -80 151 -117 239 -161 l114 -57 666 0 666 0 95
46 c96 47 138 75 271 184 117 94 169 154 251 291 111 187 108 163 108 767 0
564 -1 570 -69 689 -105 183 -150 238 -291 356 -111 94 -157 124 -259 175
l-123 62 -637 2 c-593 2 -639 1 -686 -16z m1203 -445 c57 -29 156 -102 215
-159 65 -64 152 -202 181 -289 26 -76 26 -80 26 -380 0 -299 0 -304 -26 -380
-27 -82 -96 -197 -161 -268 -49 -55 -173 -150 -240 -184 l-52 -26 -475 0 -474
0 -59 30 c-180 93 -335 272 -398 459 -25 75 -25 82 -25 371 l0 295 29 83 c62
177 211 347 393 447 l43 24 488 0 488 1 47 -24z"/>
<path d="M8064 4031 c-17 -10 -48 -40 -70 -66 l-39 -48 0 -1177 0 -1177 39
-48 c77 -93 -12 -85 947 -85 939 0 853 -6 1019 73 90 43 230 149 354 265 39
37 120 156 183 265 61 108 63 132 63 707 0 339 -4 537 -11 572 -12 57 -52 135
-136 266 -63 98 -92 127 -243 251 -86 70 -144 108 -229 150 l-115 56 -280 6
c-155 4 -544 7 -866 8 -557 1 -587 0 -616 -18z m1510 -436 c85 -18 262 -102
317 -152 50 -44 136 -159 169 -223 59 -115 60 -126 60 -484 l-1 -331 -32 -85
c-40 -106 -138 -245 -215 -305 -53 -42 -174 -99 -277 -130 -42 -12 -141 -15
-627 -15 l-578 0 0 870 0 870 559 0 c433 -1 574 -4 625 -15z"/>
<path d="M11195 4031 c-39 -23 -84 -76 -102 -118 -11 -27 -13 -238 -13 -1172
0 -777 3 -1149 11 -1168 17 -45 78 -112 116 -128 31 -13 182 -15 1132 -13
l1096 3 0 215 0 215 -952 3 -953 2 0 320 0 320 860 0 860 0 0 215 0 215 -860
0 -860 0 0 335 0 335 953 2 952 3 3 218 2 217 -1107 0 c-1062 0 -1109 -1
-1138 -19z"/>
</g>
</svg>
